<svg width="274" height="274" viewBox="0 0 274 274" xmlns="http://www.w3.org/2000/svg"><title>close</title><path d="M170.94,137 L265.94,42 C275.328841,32.6277278 275.342272,17.4188407 265.97,8.03 C256.597728,-1.35884075 241.388841,-1.3722722 232,8 L137,103 L42,8 C32.6111593,-1.38884075 17.3888407,-1.38884075 8,8 C-1.38884075,17.3888407 -1.38884075,32.6111593 8,42 L103,137 L8,232 C-1.38884075,241.388841 -1.38884075,256.611159 8,266 C17.3888407,275.388841 32.6111593,275.388841 42,266 L137,171 L232,266 C241.388841,275.388841 256.611159,275.388841 266,266 C275.388841,256.611159 275.388841,241.388841 266,232 L170.94,137 Z" fill="#000000" fill-rule="nonzero"/></svg>