<?xml version="1.0" encoding="utf-8"?>
<!-- Generator: Adobe Illustrator 22.1.0, SVG Export Plug-In . SVG Version: 6.00 Build 0)  -->
<svg version="1.1" id="Capa_1" xmlns="http://www.w3.org/2000/svg" xmlns:xlink="http://www.w3.org/1999/xlink" x="0px" y="0px"
	 viewBox="0 0 93 67" style="enable-background:new 0 0 93 67;" xml:space="preserve">
<style type="text/css">
	.st0{fill:#EAEAEB;}
	.st1{fill:none;stroke:#1C2D3F;stroke-width:2;stroke-linecap:round;stroke-linejoin:round;}
	.st2{fill:#86DDFF;}
	.st3{fill:none;stroke:#1C2D3F;stroke-width:1.5;stroke-linecap:round;stroke-linejoin:round;}
</style>
<title>icons/help3/small</title>
<g id="icons_x2F_help3_x2F_small">
	<g id="Group-23" transform="translate(2.000000, 0.000000)">
		<polygon id="Fill-1" class="st0" points="48.8,24 87,24 75.6,47.8 55.2,47.9 35,48 		"/>
		<g id="Group-22">
			<path id="Stroke-2" class="st1" d="M22.1,23.8c-5.2,0-8.9-4.2-8.9-9.3v-3.1c0-5.2,3.6-9.3,8.9-9.3S31,6.2,31,11.3v3.1
				C31,19.6,27.4,23.8,22.1,23.8z"/>
			<path id="Stroke-4" class="st1" d="M0,56.5l4.4-17.4c1.3-5.4,4-8.7,8.9-8.7h4.4l15.5,17.4h13.3c0,0,1,8.7-6.6,8.7H26.6L15.5,43.4
				"/>
			<polyline id="Stroke-6" class="st1" points="79.9,39.4 75.3,47.8 55.4,47.8 			"/>
			<polyline id="Stroke-8" class="st1" points="39.9,39.1 48.7,23.8 61.2,23.8 			"/>
			<line id="Stroke-10" class="st1" x1="17.7" y1="56.5" x2="88.6" y2="56.5"/>
			<path id="Fill-12" class="st2" d="M76.7,36.4c-6.5,0-11.8-5.2-11.8-11.6s5.3-11.6,11.8-11.6c6.5,0,11.8,5.2,11.8,11.6
				S83.2,36.4,76.7,36.4z"/>
			<path id="Stroke-14" class="st1" d="M88.5,24.8c0,6.4-5.3,11.6-11.8,11.6c-6.5,0-11.8-5.2-11.8-11.6s5.3-11.6,11.8-11.6
				C83.2,13.2,88.5,18.4,88.5,24.8z"/>
			<path id="Stroke-16" class="st3" d="M74.9,23.9h-1.7c-0.5,0-0.9-0.4-0.9-0.9v-2.3c0-0.5,0.4-0.9,0.9-0.9h1.7
				c0.5,0,0.9,0.4,0.9,0.9V23C75.8,23.5,75.4,23.9,74.9,23.9z"/>
			<path id="Stroke-18" class="st3" d="M81.2,30.1h-1.7c-0.5,0-0.9-0.4-0.9-0.9v-2.3c0-0.5,0.4-0.9,0.9-0.9h1.7
				c0.5,0,0.9,0.4,0.9,0.9v2.3C82.1,29.7,81.7,30.1,81.2,30.1z"/>
			<line id="Stroke-20" class="st3" x1="81.4" y1="19.8" x2="73" y2="30.1"/>
		</g>
	</g>
</g>
</svg>
