<?xml version="1.0" encoding="UTF-8"?>
<svg width="15px" height="13px" viewBox="0 0 15 13" version="1.1" xmlns="http://www.w3.org/2000/svg" xmlns:xlink="http://www.w3.org/1999/xlink">
    <!-- Generator: Sketch 55.2 (78181) - https://sketchapp.com -->
    <title>menu</title>
    <desc>Created with Sketch.</desc>
    <g id="menu" stroke="none" stroke-width="1" fill="none" fill-rule="evenodd">
        <g fill="#2C2E30" fill-rule="nonzero" id="Shape">
            <path d="M0.536,2.41 L14.464,2.41 C14.76,2.41 15,2.17 15,1.875 L15,0.535 C15,0.24 14.76,0 14.464,0 L0.536,0 C0.24,0 0,0.24 0,0.536 L0,1.875 C0,2.171 0.24,2.411 0.536,2.411 L0.536,2.41 Z M0.536,7.768 L14.464,7.768 C14.76,7.768 15,7.528 15,7.232 L15,5.892 C15,5.597 14.76,5.357 14.464,5.357 L0.536,5.357 C0.24,5.357 0,5.597 0,5.893 L0,7.233 C0,7.528 0.24,7.768 0.536,7.768 L0.536,7.768 Z M0.536,13.125 L14.464,13.125 C14.76,13.125 15,12.885 15,12.589 L15,11.25 C15,10.954 14.76,10.714 14.464,10.714 L0.536,10.714 C0.24,10.714 0,10.954 0,11.25 L0,12.59 C0,12.885 0.24,13.125 0.536,13.125 Z"></path>
        </g>
    </g>
</svg>