<?xml version="1.0" encoding="UTF-8"?>
<svg width="49px" height="44px" viewBox="0 0 49 44" version="1.1" xmlns="http://www.w3.org/2000/svg" xmlns:xlink="http://www.w3.org/1999/xlink">
    <title>icons/services 03</title>
    <g id="Home-&amp;-Pages" stroke="none" stroke-width="1" fill="none" fill-rule="evenodd">
        <g id="Home" transform="translate(-282.000000, -536.000000)">
            <g id="Hero" transform="translate(0.000000, 110.000000)">
                <g id="Left" transform="translate(260.000000, 162.000000)">
                    <g id="icons/services-03" transform="translate(20.000000, 264.000000)">
                        <g id="Group-17" transform="translate(3.000000, 1.000000)">
                            <path d="M33.1716,7 L37.7066,2.464 C38.6456,1.527 39.9166,1 41.2426,1 L43.1716,1 C44.8286,1 46.1716,2.343 46.1716,4 L46.1716,11 C46.1716,12.657 44.8286,14 43.1716,14 L42.1716,14" id="Stroke-1" stroke="#1C2D3F" stroke-width="2" stroke-linecap="round" stroke-linejoin="round"></path>
                            <path d="M35.1716,2 L33.1716,0 L23.1716,0 C22.1106,0 21.0936,0.421 20.3436,1.171 L0.5856,21.586 C-0.1954,22.367 -0.1954,23.633 0.5856,24.414 L19.1716,41.414 C19.9526,42.195 21.2196,42.195 21.9996,41.414 L40.9996,23 C41.7496,22.25 42.1716,21.232 42.1716,20.171 L42.1716,8 L39.1716,5" id="Stroke-3" stroke="#1C2D3F" stroke-width="2" stroke-linecap="round" stroke-linejoin="round"></path>
                            <line x1="31.1716" y1="5" x2="35.1716" y2="9" id="Stroke-5" stroke="#1C2D3F" stroke-width="2" stroke-linecap="round" stroke-linejoin="round"></line>
                            <path d="M32.1716,20.5 C32.1716,26.299 27.4706,31 21.6716,31 C15.8726,31 11.1716,26.299 11.1716,20.5 C11.1716,14.701 15.8726,10 21.6716,10 C27.4706,10 32.1716,14.701 32.1716,20.5" id="Fill-7" fill="#86DDFF"></path>
                            <path d="M32.1716,20.5 C32.1716,26.299 27.4706,31 21.6716,31 C15.8726,31 11.1716,26.299 11.1716,20.5 C11.1716,14.701 15.8726,10 21.6716,10 C27.4706,10 32.1716,14.701 32.1716,20.5 Z" id="Stroke-9" stroke="#1C2D3F" stroke-width="2" stroke-linecap="round" stroke-linejoin="round"></path>
                            <path d="M18.2966,18.6875 L18.2966,18.6875 C17.4336,18.6875 16.7346,17.9875 16.7346,17.1255 L16.7346,16.4995 C16.7346,15.6375 17.4336,14.9375 18.2966,14.9375 C19.1596,14.9375 19.8586,15.6375 19.8586,16.4995 L19.8586,17.1255 C19.8586,17.9875 19.1596,18.6875 18.2966,18.6875 Z" id="Stroke-11" stroke="#1C2D3F" stroke-width="2" stroke-linecap="round" stroke-linejoin="round"></path>
                            <path d="M25.9216,25.3125 L25.9216,25.3125 C25.0586,25.3125 24.3596,24.6125 24.3596,23.7505 L24.3596,23.1245 C24.3596,22.2625 25.0586,21.5625 25.9216,21.5625 C26.7846,21.5625 27.4836,22.2625 27.4836,23.1245 L27.4836,23.7505 C27.4836,24.6125 26.7846,25.3125 25.9216,25.3125 Z" id="Stroke-13" stroke="#1C2D3F" stroke-width="2" stroke-linecap="round" stroke-linejoin="round"></path>
                            <line x1="25.8591" y1="15.9375" x2="18.3591" y2="25.3125" id="Stroke-15" stroke="#1C2D3F" stroke-width="2" stroke-linecap="round" stroke-linejoin="round"></line>
                        </g>
                    </g>
                </g>
            </g>
        </g>
    </g>
</svg>