<?xml version="1.0" encoding="UTF-8"?>
<svg width="55px" height="42px" viewBox="0 0 55 42" version="1.1" xmlns="http://www.w3.org/2000/svg" xmlns:xlink="http://www.w3.org/1999/xlink">
    <title>icons/services 01</title>
    <g id="Home-&amp;-Pages" stroke="none" stroke-width="1" fill="none" fill-rule="evenodd">
        <g id="Home" transform="translate(-279.000000, -347.000000)">
            <g id="Hero" transform="translate(0.000000, 110.000000)">
                <g id="Left" transform="translate(260.000000, 162.000000)">
                    <g id="icons/services-01" transform="translate(20.000000, 75.000000)">
                        <g id="Group-29" transform="translate(0.000000, 1.000000)">
                            <path d="M48,5.24137931 L48,1.93103448 L33.1034483,1.93103448 C28.5897931,1.93103448 26.4827586,4.94427586 26.4827586,8.55172414 C26.4827586,4.94427586 24.3757241,1.93103448 19.862069,1.93103448 L4.96551724,1.93103448 L4.96551724,5.25462069 L0.827586207,5.24137931 L0.827586207,37.5172414 L19.862069,37.5172414 L22.3448276,40 L30.6206897,40 L33.1034483,37.5172414 L52.137931,37.5172414 L52.137931,5.24137931 L48,5.24137931 Z" id="Fill-3" fill="#FFFFFF"></path>
                            <polyline id="Stroke-5" stroke="#1C2D3F" stroke-width="2" stroke-linecap="round" stroke-linejoin="round" points="0.827586207 5.24137931 0.827586207 37.5172414 19.862069 37.5172414 22.3448276 40 30.6206897 40 33.1034483 37.5172414 52.137931 37.5172414 52.137931 25.9310345"></polyline>
                            <path d="M9.93103448,1.93103448 L4.96551724,1.93103448 L4.96551724,33.3793103 L19.862069,33.3793103 C22.0228966,33.3793103 23.9908966,34.7522759 24.8275862,35.862069 L26.4827586,35.862069 L26.4827586,8.55172414 C26.4827586,4.94427586 24.3757241,1.93103448 19.862069,1.93103448 L16.5517241,1.93103448" id="Stroke-7" stroke="#1C2D3F" stroke-width="2" stroke-linecap="round" stroke-linejoin="round"></path>
                            <path d="M48,30.0689655 L48,33.3793103 L33.1034483,33.3793103 C30.9426207,33.3793103 28.9746207,34.7522759 28.137931,35.862069 L26.4827586,35.862069 L26.4827586,8.55172414 C26.4827586,4.94427586 28.5897931,1.93103448 33.1034483,1.93103448 L48,1.93103448 L48,5.24137931" id="Stroke-9" stroke="#1C2D3F" stroke-width="2" stroke-linecap="round" stroke-linejoin="round"></path>
                            <polygon id="Fill-11" fill="#86DDFF" points="9.93103448 13.5172414 13.2413793 11.0344828 16.5517241 13.5172414 16.5517241 0.275862069 9.93103448 0.275862069"></polygon>
                            <polygon id="Stroke-13" stroke="#1C2D3F" stroke-width="2" stroke-linecap="round" stroke-linejoin="round" points="9.93103448 13.5172414 13.2413793 11.0344828 16.5517241 13.5172414 16.5517241 0.275862069 9.93103448 0.275862069"></polygon>
                            <path d="M52.137931,17.6551724 C52.137931,23.1395862 47.6913103,27.5862069 42.2068966,27.5862069 C36.7224828,27.5862069 32.2758621,23.1395862 32.2758621,17.6551724 C32.2758621,12.1707586 36.7224828,7.72413793 42.2068966,7.72413793 C47.6913103,7.72413793 52.137931,12.1707586 52.137931,17.6551724" id="Fill-15" fill="#86DDFF"></path>
                            <path d="M52.137931,17.6551724 C52.137931,23.1395862 47.6913103,27.5862069 42.2068966,27.5862069 C36.7224828,27.5862069 32.2758621,23.1395862 32.2758621,17.6551724 C32.2758621,12.1707586 36.7224828,7.72413793 42.2068966,7.72413793 C47.6913103,7.72413793 52.137931,12.1707586 52.137931,17.6551724 Z" id="Stroke-17" stroke="#1C2D3F" stroke-width="2" stroke-linecap="round" stroke-linejoin="round"></path>
                            <path d="M40.5517241,19.3103448 L40.5517241,19.8623448 C40.5517241,20.4714483 41.0457931,20.9655172 41.6548966,20.9655172 L42.7588966,20.9655172 C43.368,20.9655172 43.862069,20.4714483 43.862069,19.8623448 L43.862069,19.0016552 C43.862069,18.5274483 43.5583448,18.1053793 43.1073103,17.9555862 L41.3064828,17.3547586 C40.8554483,17.2049655 40.5517241,16.7828966 40.5517241,16.3086897 L40.5517241,15.448 C40.5517241,14.8388966 41.0457931,14.3448276 41.6548966,14.3448276 L42.7588966,14.3448276 C43.368,14.3448276 43.862069,14.8388966 43.862069,15.448 L43.862069,16" id="Stroke-19" stroke="#1C2D3F" stroke-width="1.5" stroke-linecap="round" stroke-linejoin="round"></path>
                            <line x1="42.2068966" y1="14.3448276" x2="42.2068966" y2="12.6896552" id="Stroke-21" stroke="#1C2D3F" stroke-width="1.5" stroke-linecap="round" stroke-linejoin="round"></line>
                            <line x1="42.2068966" y1="20.9655172" x2="42.2068966" y2="22.6206897" id="Stroke-23" stroke="#1C2D3F" stroke-width="1.5" stroke-linecap="round" stroke-linejoin="round"></line>
                            <line x1="38.0689655" y1="21.7931034" x2="35.1724138" y2="24.6896552" id="Stroke-25" stroke="#1C2D3F" stroke-width="1.5" stroke-linecap="round" stroke-linejoin="round"></line>
                            <line x1="48.8275862" y1="11.0344828" x2="46.3448276" y2="13.5172414" id="Stroke-27" stroke="#1C2D3F" stroke-width="1.5" stroke-linecap="round" stroke-linejoin="round"></line>
                        </g>
                    </g>
                </g>
            </g>
        </g>
    </g>
</svg>