<?xml version="1.0" encoding="UTF-8"?>
<svg width="41px" height="56px" viewBox="0 0 41 56" version="1.1" xmlns="http://www.w3.org/2000/svg" xmlns:xlink="http://www.w3.org/1999/xlink">
    <title>icons/services 02</title>
    <g id="Home-&amp;-Pages" stroke="none" stroke-width="1" fill="none" fill-rule="evenodd">
        <g id="Home" transform="translate(-286.000000, -441.000000)">
            <g id="Hero" transform="translate(0.000000, 110.000000)">
                <g id="Left" transform="translate(260.000000, 162.000000)">
                    <g id="icons/services-02" transform="translate(20.000000, 170.000000)">
                        <g id="Group-27" transform="translate(7.000000, 0.000000)">
                            <path d="M0.0625,17.71875 C0.0625,26.227125 6.367,33.2462813 14.5555937,34.4064375 C15.7047813,33.0741563 16.55275,31.6347188 16.9375,30.375 C9.947875,30.375 4.28125,24.708375 4.28125,17.71875 C4.28125,10.729125 9.947875,5.0625 16.9375,5.0625 C23.927125,5.0625 29.59375,10.729125 29.59375,17.71875 C29.59375,18.2730938 29.5524063,18.8164688 29.4832187,19.35225 C29.4849063,19.3547813 29.4865938,19.3573125 29.4882812,19.3606875 C30.3303438,21.1705313 31.277875,23.0402813 31.2820938,26.5958438 C32.8826875,24.0173438 33.8125,20.9781563 33.8125,17.71875 C33.8125,8.3986875 26.2575625,0.84375 16.9375,0.84375 C7.6174375,0.84375 0.0625,8.3986875 0.0625,17.71875 Z" id="Fill-1" fill="#86DDFF"></path>
                            <polyline id="Stroke-3" stroke="#1C2D3F" stroke-width="2" stroke-linecap="round" stroke-linejoin="round" points="21.15625 21.9375 17.78125 21.9375 17.78125 14.34375 15.25 14.34375"></polyline>
                            <line x1="14.40625" y1="21.9375" x2="17.78125" y2="21.9375" id="Stroke-5" stroke="#1C2D3F" stroke-width="2" stroke-linecap="round" stroke-linejoin="round"></line>
                            <line x1="17.78125" y1="11.8125" x2="17.7896875" y2="11.8125" id="Stroke-7" stroke="#1C2D3F" stroke-width="2" stroke-linecap="round" stroke-linejoin="round"></line>
                            <path d="M36.34375,32.0625 L34.65625,32.0625 C34.65625,31.1132812 33.7593437,30.375 32.96875,30.375 L31.28125,30.375 C30.9580937,29.86875 30.1253125,29.53125 29.59375,29.53125 L27.90625,29.53125 L27.90625,23.7152813 C27.90625,22.8749063 27.3316563,22.0952812 26.50225,21.9602813 C25.4450312,21.789 24.53125,22.5998437 24.53125,23.625 L24.53125,36.28125 C23.9465313,36.8423437 22.9964687,36.7309688 22.556875,36.0500625 L21.1992812,33.9449063 C19.8484375,32.0852813 17.78125,33.129 17.78125,33.9449063 C17.78125,33.9449063 20.3411875,42.11325 20.7082188,42.687 C21.2971562,43.6092188 23.6875,45.6848437 23.6875,46.40625 L23.6875,49.78125 L36.34375,49.78125 L36.34375,47.25 C36.34375,46.1134687 38.03125,44.7381563 38.03125,43.03125 L38.03125,33.75 C38.03125,32.8007812 37.1343437,32.0625 36.34375,32.0625" id="Fill-9" fill="#FFFFFF"></path>
                            <path d="M27.90625,29.53125 L29.59375,29.53125 C30.1253125,29.53125 30.9580937,29.86875 31.28125,30.375 L32.96875,30.375 C33.7593437,30.375 34.65625,31.1132812 34.65625,32.0625 L36.34375,32.0625 C37.1351875,32.0625 38.03125,32.8007812 38.03125,33.75 L38.03125,43.03125 C38.03125,44.7381563 36.34375,46.1134687 36.34375,47.25 L36.34375,49.78125" id="Stroke-11" stroke="#1C2D3F" stroke-width="2" stroke-linecap="round" stroke-linejoin="round"></path>
                            <path d="M23.6875,49.78125 L23.6875,46.40625 C23.6875,45.6848437 21.2971563,43.6100625 20.7082188,42.687 C20.3411875,42.11325 17.78125,33.9449063 17.78125,33.9449063 C17.78125,33.1298437 19.8484375,32.0852813 21.1992813,33.9449063 L22.5560313,36.0500625 C22.995625,36.7309688 23.9465313,36.8423437 24.53125,36.28125 L24.53125,23.625 C24.53125,22.6935 25.28725,21.9375 26.21875,21.9375 C27.15025,21.9375 27.90625,22.6935 27.90625,23.625 L27.90625,34.59375" id="Stroke-13" stroke="#1C2D3F" stroke-width="2" stroke-linecap="round" stroke-linejoin="round"></path>
                            <line x1="31.28125" y1="30.375" x2="31.28125" y2="34.59375" id="Stroke-15" stroke="#1C2D3F" stroke-width="2" stroke-linecap="round" stroke-linejoin="round"></line>
                            <line x1="34.65625" y1="32.0625" x2="34.65625" y2="35.4375" id="Stroke-17" stroke="#1C2D3F" stroke-width="2" stroke-linecap="round" stroke-linejoin="round"></line>
                            <polygon id="Fill-19" fill="#F9F9FA" points="22 53.15625 38.03125 53.15625 38.03125 48.9375 22 48.9375"></polygon>
                            <polygon id="Stroke-21" stroke="#1C2D3F" stroke-width="2" stroke-linecap="round" stroke-linejoin="round" points="22 53.15625 38.03125 53.15625 38.03125 48.9375 22 48.9375"></polygon>
                            <path d="M16.9375,30.375 C9.947875,30.375 4.28125,24.708375 4.28125,17.71875 C4.28125,10.729125 9.947875,5.0625 16.9375,5.0625 C23.927125,5.0625 29.59375,10.729125 29.59375,17.71875 C29.59375,18.2747812 29.5574688,18.8232187 29.4882812,19.3606875" id="Stroke-22" stroke="#1C2D3F" stroke-width="2" stroke-linecap="round" stroke-linejoin="round"></path>
                            <path d="M14.540575,34.4248312 C6.3562,33.2613 0.06266875,26.2252687 0.06266875,17.7185812 C0.06266875,8.39851875 7.61760625,0.84358125 16.9376688,0.84358125 C26.2577313,0.84358125 33.8126688,8.39851875 33.8126688,17.7185812 C33.8126688,20.9813625 32.8862313,24.0289875 31.2831063,26.6108625" id="Stroke-23" stroke="#1C2D3F" stroke-width="2" stroke-linecap="round" stroke-linejoin="round"></path>
                            <polygon id="Fill-26" fill="#EAEAEA" points="32.96875 52.3125 37.1875 52.3125 37.1875 49.78125 32.96875 49.78125"></polygon>
                        </g>
                    </g>
                </g>
            </g>
        </g>
    </g>
</svg>